<svg width="170" height="140" viewBox="0 0 170 140" fill="none" xmlns="http://www.w3.org/2000/svg">
<ellipse cx="62.8473" cy="27.1348" rx="3.09339" ry="3.0999" fill="#CDD3DE"/>
<path d="M17.0371 53.1026C16.8815 53.1064 16.7312 53.0455 16.622 52.9343C16.5079 52.8241 16.4434 52.6722 16.4434 52.5134C16.4434 52.3546 16.5079 52.2026 16.622 52.0924L22.5518 46.1501C22.7858 45.9224 23.158 45.9224 23.3919 46.1501C23.506 46.2603 23.5705 46.4122 23.5705 46.571C23.5705 46.7298 23.506 46.8818 23.3919 46.992L17.4621 52.9343C17.3485 53.045 17.1955 53.1057 17.0371 53.1026Z" fill="#EED86B"/>
<path d="M22.9768 53.1026C22.8182 53.1068 22.6647 53.046 22.5518 52.9343L16.622 46.992C16.5079 46.8818 16.4434 46.7298 16.4434 46.571C16.4434 46.4122 16.5079 46.2603 16.622 46.1501C16.8559 45.9224 17.2281 45.9224 17.4621 46.1501L23.3919 52.0924C23.506 52.2026 23.5705 52.3546 23.5705 52.5134C23.5705 52.6722 23.506 52.8241 23.3919 52.9343C23.2827 53.0455 23.1324 53.1064 22.9768 53.1026Z" fill="#EED86B"/>
<path d="M157.902 80.1303C157.743 80.1344 157.59 80.0736 157.477 79.9619C157.25 79.7275 157.25 79.3545 157.477 79.1201L162.626 73.9602C162.863 73.765 163.209 73.7828 163.425 74.0014C163.64 74.2199 163.654 74.5671 163.456 74.802L158.317 79.9619C158.207 80.0721 158.057 80.1329 157.902 80.1303V80.1303Z" fill="#CDD3DE"/>
<path d="M163.012 80.1302C162.856 80.134 162.706 80.073 162.596 79.9618L157.447 74.8019C157.215 74.5695 157.215 74.1926 157.447 73.9601C157.679 73.7277 158.056 73.7277 158.287 73.9601L163.427 79.12C163.541 79.2302 163.605 79.3821 163.605 79.5409C163.605 79.6997 163.541 79.8517 163.427 79.9618C163.317 80.073 163.167 80.134 163.012 80.1302Z" fill="#CDD3DE"/>
<ellipse cx="7.61901" cy="81.2197" rx="2.61901" ry="2.62452" fill="#CDD3DE"/>
<ellipse cx="153.533" cy="62.4321" rx="2.29287" ry="2.29769" fill="#EED86B"/>
<path d="M125.455 25.6591C125.139 25.6595 124.878 25.4111 124.862 25.0946L124.467 17.6271C124.456 17.3007 124.705 17.0244 125.031 17.0031C125.19 16.9862 125.349 17.0382 125.468 17.1459C125.587 17.2537 125.654 17.4071 125.653 17.5677L126.009 25.0352C126.017 25.1945 125.961 25.3503 125.853 25.4677C125.745 25.585 125.595 25.654 125.436 25.6591H125.455Z" fill="#778089"/>
<path d="M149.413 30.4031C149.27 30.4033 149.133 30.3503 149.027 30.2545C148.781 30.0429 148.75 29.6722 148.958 29.4226L152.753 24.9262C152.966 24.6746 153.342 24.6436 153.593 24.8569C153.844 25.0702 153.875 25.4471 153.662 25.6987L149.867 30.1852C149.755 30.3208 149.589 30.4004 149.413 30.4031Z" fill="#778089"/>
<path d="M146.103 34.1764C145.965 34.176 145.832 34.1269 145.727 34.0378C145.602 33.9406 145.523 33.7963 145.508 33.6389C145.493 33.4814 145.544 33.3248 145.648 33.2058L146.854 31.7401C146.979 31.5505 147.201 31.4492 147.426 31.479C147.651 31.5089 147.839 31.6647 147.911 31.8803C147.982 32.096 147.925 32.3337 147.763 32.4928L146.557 33.9585C146.445 34.0942 146.279 34.1738 146.103 34.1764Z" fill="#778089"/>
<path d="M31.957 47.1707L129.447 35.7355L130.673 46.1916L33.1835 57.6268L31.957 47.1707Z" fill="#CED6DB"/>
<path d="M40.2737 118.795C39.9714 118.797 39.716 118.571 39.6807 118.27L31.379 47.2495C31.3563 47.094 31.3993 46.9361 31.4976 46.8137C31.593 46.6872 31.7357 46.6049 31.8929 46.5859L129.409 35.1371C129.564 35.1118 129.723 35.1551 129.844 35.2559C129.964 35.3555 130.042 35.4971 130.061 35.6521L138.373 106.673C138.408 107 138.175 107.295 137.849 107.336L111.353 110.446C111.197 110.468 111.04 110.426 110.916 110.329C110.793 110.231 110.715 110.088 110.7 109.931C110.66 109.606 110.89 109.309 111.214 109.267L137.128 106.227L128.954 36.385L32.6243 47.7051L40.7975 117.557L98.4552 110.773C98.6131 110.75 98.7734 110.794 98.8985 110.893C99.0236 110.992 99.1027 111.138 99.1173 111.298C99.1522 111.625 98.9194 111.92 98.5936 111.961L40.3429 118.805L40.2737 118.795Z" fill="#778089"/>
<path d="M35.9355 59.5897C35.6626 59.6033 35.4303 59.3927 35.4166 59.1192C35.403 58.8457 35.6132 58.6129 35.8861 58.5993L125.397 48.329C125.665 48.3054 125.904 48.4973 125.94 48.7648C125.969 49.0352 125.775 49.2784 125.506 49.3095L35.9948 59.5897H35.9355Z" fill="#778089"/>
<ellipse cx="39.7211" cy="52.7263" rx="2.17427" ry="2.17885" fill="#778089"/>
<ellipse cx="48.309" cy="51.7161" rx="2.17427" ry="2.17885" fill="#778089"/>
<ellipse cx="56.9067" cy="50.7059" rx="2.17427" ry="2.17885" fill="#778089"/>
<path d="M76.9824 62.9203L122.94 57.5297L125.303 77.6746L79.3453 83.0653L76.9824 62.9203Z" fill="#CED6DB"/>
<path d="M80.0543 89.7865C79.7547 89.7658 79.5178 89.5241 79.5027 89.2236C79.4876 88.923 79.699 88.6586 79.995 88.6079L125.961 83.2103C126.116 83.1879 126.274 83.2304 126.397 83.3277C126.521 83.425 126.599 83.5687 126.613 83.7253C126.649 84.0492 126.421 84.3427 126.099 84.3889L80.1235 89.7865H80.0543Z" fill="#CED6DB"/>
<path d="M102.508 111.417C102.21 111.414 101.96 111.189 101.925 110.892C101.89 110.564 102.123 110.269 102.449 110.228L106.837 109.743C107.162 109.708 107.453 109.943 107.489 110.268C107.509 110.424 107.464 110.582 107.365 110.705C107.267 110.829 107.123 110.906 106.966 110.921L102.578 111.417H102.508Z" fill="#778089"/>
<rect x="133.748" y="80" width="35" height="35" rx="4" transform="rotate(45 133.748 80)" fill="#C1C9D3"/>
<path fill-rule="evenodd" clip-rule="evenodd" d="M156.899 107.224C158.461 105.661 158.461 103.129 156.899 101.567L138.514 83.1819C136.952 81.6198 134.419 81.6198 132.857 83.1819L114.472 101.567C112.91 103.129 112.91 105.661 114.472 107.224L132.857 125.608C134.419 127.17 136.952 127.17 138.514 125.608L156.899 107.224ZM137.524 84.1719L155.909 102.557L156.021 102.677C156.923 103.698 156.885 105.257 155.909 106.234L137.524 124.618L137.404 124.731C136.383 125.632 134.823 125.595 133.847 124.618L115.462 106.234L115.35 106.114C114.448 105.093 114.486 103.533 115.462 102.557L133.847 84.1719L133.967 84.0592C134.988 83.158 136.548 83.1956 137.524 84.1719Z" fill="#778089"/>
<path d="M133.886 87.5658C134.901 86.5505 136.548 86.5505 137.563 87.5658L154.272 104.275C155.288 105.291 155.288 106.937 154.272 107.952L137.563 124.662C136.548 125.677 134.901 125.677 133.886 124.662L117.176 107.952C116.161 106.937 116.161 105.291 117.176 104.275L133.886 87.5658Z" fill="#F0F0F0"/>
<path fill-rule="evenodd" clip-rule="evenodd" d="M140.13 99.7361C140.975 98.891 141.527 97.7955 142.372 98.6406C142.372 98.6406 144.301 99.8897 143.456 100.735C143.456 100.735 132.777 111.931 132.777 111.533C132.777 111.134 129.393 111.37 129.393 111.37C129.393 110.796 129.621 110.246 130.027 109.839L140.13 99.7361Z" fill="#EED86B"/>
<path fill-rule="evenodd" clip-rule="evenodd" d="M139.13 96.7361C139.975 95.891 141.346 95.891 142.191 96.7361L143.759 98.3028C144.604 99.1486 144.604 100.52 143.759 101.365L133.656 111.468C133.249 111.874 132.699 112.102 132.124 112.102H129.114C128.716 112.102 128.393 111.779 128.393 111.381V108.37C128.393 107.796 128.621 107.246 129.027 106.839L139.13 96.7361ZM141.171 97.7565C140.889 97.4751 140.433 97.4751 140.151 97.7565L138.795 99.1125L141.382 101.7L142.738 100.344C143.02 100.062 143.02 99.6061 142.738 99.3239L141.171 97.7565ZM140.362 102.721L137.774 100.133L130.047 107.86C129.912 107.995 129.836 108.179 129.836 108.37V110.659H132.124C132.316 110.659 132.5 110.583 132.635 110.448L140.362 102.721V102.721Z" fill="#778089"/>
</svg>
